<?xml version="1.0" encoding="UTF-8"?>
<svg width="296px" height="28px" viewBox="0 0 296 28" version="1.1" xmlns="http://www.w3.org/2000/svg" xmlns:xlink="http://www.w3.org/1999/xlink">
    <title>A97599DE-0993-4039-9D9F-71159F72A512</title>
    <g id="Desktop" stroke="none" stroke-width="1" fill="none" fill-rule="evenodd">
        <g id="Groupe-Capvest" transform="translate(-100.000000, -8458.000000)" fill="#344856">
            <g id="FOOTER" transform="translate(0.000000, 8420.000000)">
                <g id="Groupe-Capvest-FOOTER-logo" transform="translate(100.000000, 38.000000)">
                    <path d="M79.5967294,8.16935484 C78.6464831,4.02419355 74.193585,0.987096774 69.8827503,1.13225806 C64.7274277,1.30483871 59.8262407,5.98709677 59.8262407,14 C59.8262407,20.7419355 64.3833186,26.2935484 71.1376436,26.2935484 C75.3853391,26.2935484 78.6480616,24.1129032 79.5967294,19.6306452 L81,19.6306452 L80.8105821,25.8580645 C77.9266953,27.0870968 73.5274656,28 70.4920445,28 C61.9950751,28 56,22.3677419 56,14.3967742 C56,7.45645161 60.9311782,0 71.0224144,0 C73.8305342,0 76.7507261,0.633870968 79.899798,1.86290323 L80.8105821,8.16935484 L79.5967294,8.16935484 Z" id="Fill-1"></path>
                    <path d="M105.712771,3.39123687 L100.830619,14.0957498 L111.088279,14.0941977 L105.712771,3.39123687 Z M111.986608,15.4258596 L100.118706,15.3901624 L98.0874223,19.9826886 C97.0444611,22.5528892 98.1147418,24.635745 101.050782,24.781638 L100.994536,26 L92,26 L92,24.8344078 C94.0071781,24.3563754 94.8299764,23.3056351 95.948468,20.660936 L105.492608,0 L108.126527,0 L118.877544,22.1214183 C119.648918,23.8116046 120.569745,24.5891834 122,24.5891834 L121.950182,26 L111.409685,26 L111.409685,24.8949379 C114.5,24.6015998 115.520463,23.7215855 114.554639,21.5161175 L111.986608,15.4258596 Z" id="Fill-3"></path>
                    <path d="M136.4273,4.99322258 C136.4273,2.77886403 136.307254,1.36292209 132,1.31146164 L132,0.00311881485 L148.054165,0 C153.827582,0 157,2.88958196 157,6.91285312 C157,11.2308523 154.126897,14.0487015 147.617197,14.0487015 C146.307894,14.0487015 139.859018,14.0518203 139.859018,14.0518203 L139.859018,12.8432796 L146.797682,12.8432796 C150.616749,12.8432796 153.299379,10.2032028 153.299379,7.2871109 C153.299379,4.59245487 152.588706,1.31146164 145.814905,1.41594194 L139.913439,1.41594194 L139.859018,20.339351 C139.859018,24.0086367 140.366413,24.9520782 144.230296,24.9520782 L144.230296,26 L132.320123,26 L132.374544,24.9520782 C136.020744,24.9520782 136.417696,23.4846758 136.4273,20.163138 L136.4273,4.99322258 Z" id="Fill-5"></path>
                    <path d="M181.286357,22.5293693 C181.620601,21.7422966 188.965933,6.27623977 188.965933,6.27623977 C190.227382,2.64600385 188.469388,1.53033221 185.948096,1.06872894 L185.948096,0 L195,0 L195,1.12193067 C193.878354,1.45522388 193.494295,1.66959557 192.914189,2.22508426 C192.065724,3.04032258 188.307087,11.3789119 188.307087,11.3789119 L181.561144,26 L178.928973,26 C178.928973,26 177.436124,22.7077516 176.624618,21.0037313 L168.726498,4.53935965 C167.29632,1.57727492 166.545878,1.40671642 165,1.40671642 L165,0 L175.543146,0 L175.543146,1.06872894 C171.990198,1.21581608 171.469548,2.85255176 173.168086,6.22303804 C173.168086,6.22303804 180.73839,21.3464131 181.286357,22.5293693" id="Fill-7"></path>
                    <path d="M227.740585,26 L206.064271,26 L206.059681,24.5934145 C209.302329,24.7431176 210.085828,23.8714089 210.085828,21.1783122 L210.085828,3.77532538 C210.085828,1.33953098 208.979441,1.07443172 206,1.07443172 L206,0 L227.114704,0 L227.270792,5.50470821 L226.173586,5.55772806 C225.12841,2.04438313 223.091617,1.10094164 219.279707,1.15396149 L213.551896,1.15396149 L213.551896,11.8468182 L218.442648,11.8468182 C221.901065,11.8468182 223.639454,10.4838961 223.823087,7.86409165 L224.868263,7.86409165 L224.917232,17.0365261 L223.719029,17.1410064 C223.823087,13.997241 221.76334,13.0007797 218.600266,13.0007797 L213.533533,13.0007797 L213.533533,19.7623703 C213.408051,23.7981167 213.481504,24.8475979 217.764737,24.6900978 L219.643912,24.6370779 C223.72668,24.6370779 226.064937,23.305344 227.792615,19.8356624 L229,19.8356624 L227.740585,26 Z" id="Fill-9"></path>
                    <path d="M239,17.7989909 L240.446602,17.8475431 C241.224919,21.548131 242.257282,24.4491249 248.234628,24.3778139 C253.92233,24.3110546 254.972492,21.0064706 254.409385,19.0234167 C253.933657,17.3453313 252.728155,16.7202218 252.171521,16.3894599 C250.705502,15.4791062 244.73301,12.694941 240.877023,9.58760027 C239.967638,8.49972757 239.522654,7.52413182 239.661812,5.66094118 C239.867314,2.93746627 242.588997,-0.0151143317 248.446602,0 C251.05178,0.00460999917 254.273463,0.558408519 256.839806,1.88600771 L256.839806,6.9354364 L255.402913,6.9354364 C255.402913,3.41691923 252.063107,1.22296674 248.446602,1.22296674 C245.762136,1.22296674 243.36246,2.24711469 243.032362,4.23320308 C242.720065,6.10094548 243.506472,6.70633072 243.859223,7.03709257 C246.401294,8.97614602 253.538835,12.4370075 255.349515,13.8207451 C256.839806,14.8448931 258,16.3454595 258,18.1054767 C258,23.0335249 254.574434,25.5506529 249.438511,25.9587949 C245.930421,26.23797 241.364078,25.0408549 239.420712,24.1077423 L239,17.7989909 Z" id="Fill-11"></path>
                    <path d="M279.158155,1.16580746 L273.591433,1.16580746 C270.065898,1.16580746 268.248764,3.36650282 267.123558,6.24829157 L266,6.24829157 L266.392092,0 L295.563427,0 L296,6.24829157 L294.958814,6.24829157 C293.103789,2.85373456 292.257002,1.16580746 288.772652,1.16580746 L282.868204,1.16580746 L282.924217,19.6535188 C283.037891,24.4211725 283.431631,24.7874356 287.143328,24.7952284 L287.143328,26 L274.828666,26 L274.828666,24.8466611 C278.482702,24.8934181 279.102142,24.8934181 279.158155,19.6005275 L279.158155,1.16580746 Z" id="Fill-13"></path>
                    <path d="M0,14.4872803 C0,21.3448196 6.76719514,28 13.9065443,28 L14,14.4872803 L13.9065443,0 C6.23483133,0 0,6.43825162 0,14.4872803" id="Fill-16"></path>
                    <polygon id="Fill-18" points="14 27.9934094 25.9936884 28 26 14"></polygon>
                    <polygon id="Fill-21" points="14 0.00592373195 26 0 26 12"></polygon>
                </g>
            </g>
        </g>
    </g>
</svg>